<svg width="106" height="56" viewBox="0 0 106 56" fill="none" xmlns="http://www.w3.org/2000/svg">
<path d="M31.74 30.7V42.7L25.44 49H19.2V55.6H13.26V49H6.48L0.3 42.82V37.54H7.14V40.72L9.42 43H13.26V30.52H6.6L0.42 24.4V13.18L6.6 7H13.26V0.399996H19.2V7H25.08L31.26 13.18V18.52H24.42V15.28L22.08 13H19.2V24.52H25.56L31.74 30.7ZM13.26 24.52V13H9.6L7.26 15.28V22.24L9.6 24.52H13.26ZM24.9 32.86L22.56 30.52H19.2V43H22.5L24.9 40.6V32.86ZM38.6344 42.82V37.72H45.5944V40.6L47.9944 43H58.9144L61.3144 40.6V29.74L57.5944 33.46H44.2144L38.0344 27.28V13.18L44.2144 7H62.0944L68.2744 13.18V42.82L62.0944 49H44.8144L38.6344 42.82ZM56.8744 27.46L61.3144 23.02V15.4L58.9144 13H47.3944L44.9944 15.4V25.06L47.3944 27.46H56.8744ZM75.7828 42.82V37.72H82.7428V40.6L85.1428 43H96.0628L98.4628 40.6V29.74L94.7428 33.46H81.3628L75.1828 27.28V13.18L81.3628 7H99.2428L105.423 13.18V42.82L99.2428 49H81.9628L75.7828 42.82ZM94.0228 27.46L98.4628 23.02V15.4L96.0628 13H84.5428L82.1428 15.4V25.06L84.5428 27.46H94.0228Z" fill="white"/>
</svg>
