<svg width="203" height="83" viewBox="0 0 203 83" fill="none" xmlns="http://www.w3.org/2000/svg">
<path d="M37.056 43.48V56.28L30.336 63H23.68V70.04H17.344V63H10.112L3.52 56.408V50.776H10.816V54.168L13.248 56.6H17.344V43.288H10.24L3.648 36.76V24.792L10.24 18.2H17.344V11.16H23.68V18.2H29.952L36.544 24.792V30.488H29.248V27.032L26.752 24.6H23.68V36.888H30.464L37.056 43.48ZM17.344 36.888V24.6H13.44L10.944 27.032V34.456L13.44 36.888H17.344ZM29.76 45.784L27.264 43.288H23.68V56.6H27.2L29.76 54.04V45.784ZM51.642 26.072L41.85 31.128V24.28L52.922 18.2H59.066V63H51.642V26.072ZM86.2675 54.424H64.5075V46.04L84.1555 18.2H93.6915V48.024H99.1315V54.424H93.6915V63H86.2675V54.424ZM86.5235 48.216V26.072H86.2035L71.7395 46.744V48.216H86.5235ZM103.95 56.408V50.968H111.374V54.04L113.934 56.6H125.582L128.142 54.04V42.456L124.174 46.424H109.902L103.31 39.832V24.792L109.902 18.2H128.974L135.566 24.792V56.408L128.974 63H110.542L103.95 56.408ZM123.406 40.024L128.142 35.288V27.16L125.582 24.6H113.294L110.734 27.16V37.464L113.294 40.024H123.406Z" fill="white"/>
<path d="M151.208 53.768H152.152L145.96 65H145L151.208 53.768ZM157.218 57.032H158.098V58.664L159.746 57.032H161.602L162.866 58.296L164.13 57.032H166.61L168.002 58.424V65H167.106V58.696L166.226 57.832H164.354L163.138 59.048V65H162.258V58.792L161.298 57.832H159.954L158.114 59.672V65H157.218V57.032ZM170.323 63.608V58.424L171.715 57.032H175.683L177.075 58.424V63.608L175.683 65H171.715L170.323 63.608ZM175.299 64.184L176.179 63.32V58.696L175.299 57.832H172.099L171.219 58.696V63.32L172.099 64.184H175.299ZM179.468 57.032H180.348V58.888L182.204 57.032H184.556L185.948 58.424V65H185.052V58.712L184.172 57.848H182.476L180.364 59.944V65H179.468V57.032ZM188.984 63.608V57.816H187.544V57.032H189.016V54.44H189.88V57.032H192.376V57.832H189.88V63.32L190.76 64.2H192.376V65H190.376L188.984 63.608ZM194.374 53.576H195.27V58.872L197.11 57.032H199.494L200.886 58.424V65H199.99V58.696L199.11 57.832H197.382L195.27 59.944V65H194.374V53.576Z" fill="#71717A"/>
</svg>
