<svg width="178" height="83" viewBox="0 0 178 83" fill="none" xmlns="http://www.w3.org/2000/svg">
<path d="M37.056 43.48V56.28L30.336 63H23.68V70.04H17.344V63H10.112L3.52 56.408V50.776H10.816V54.168L13.248 56.6H17.344V43.288H10.24L3.648 36.76V24.792L10.24 18.2H17.344V11.16H23.68V18.2H29.952L36.544 24.792V30.488H29.248V27.032L26.752 24.6H23.68V36.888H30.464L37.056 43.48ZM17.344 36.888V24.6H13.44L10.944 27.032V34.456L13.44 36.888H17.344ZM29.76 45.784L27.264 43.288H23.68V56.6H27.2L29.76 54.04V45.784ZM44.09 56.408V50.968H51.514V54.04L54.074 56.6H65.722L68.282 54.04V42.456L64.314 46.424H50.042L43.45 39.832V24.792L50.042 18.2H69.114L75.706 24.792V56.408L69.114 63H50.682L44.09 56.408ZM63.546 40.024L68.282 35.288V27.16L65.722 24.6H53.434L50.874 27.16V37.464L53.434 40.024H63.546ZM83.395 56.408V50.968H90.819V54.04L93.379 56.6H105.027L107.587 54.04V42.456L103.619 46.424H89.347L82.755 39.832V24.792L89.347 18.2H108.419L115.011 24.792V56.408L108.419 63H89.987L83.395 56.408ZM102.851 40.024L107.587 35.288V27.16L105.027 24.6H92.739L90.179 27.16V37.464L92.739 40.024H102.851Z" fill="white"/>
<path d="M126.208 53.768H127.152L120.96 65H120L126.208 53.768ZM132.218 57.032H133.098V58.664L134.746 57.032H136.602L137.866 58.296L139.13 57.032H141.61L143.002 58.424V65H142.106V58.696L141.226 57.832H139.354L138.138 59.048V65H137.258V58.792L136.298 57.832H134.954L133.114 59.672V65H132.218V57.032ZM145.323 63.608V58.424L146.715 57.032H150.683L152.075 58.424V63.608L150.683 65H146.715L145.323 63.608ZM150.299 64.184L151.179 63.32V58.696L150.299 57.832H147.099L146.219 58.696V63.32L147.099 64.184H150.299ZM154.468 57.032H155.348V58.888L157.204 57.032H159.556L160.948 58.424V65H160.052V58.712L159.172 57.848H157.476L155.364 59.944V65H154.468V57.032ZM163.984 63.608V57.816H162.544V57.032H164.016V54.44H164.88V57.032H167.376V57.832H164.88V63.32L165.76 64.2H167.376V65H165.376L163.984 63.608ZM169.374 53.576H170.27V58.872L172.11 57.032H174.494L175.886 58.424V65H174.99V58.696L174.11 57.832H172.382L170.27 59.944V65H169.374V53.576Z" fill="#71717A"/>
</svg>
