<svg width="217" height="83" viewBox="0 0 217 83" fill="none" xmlns="http://www.w3.org/2000/svg">
<path d="M37.056 43.48V56.28L30.336 63H23.68V70.04H17.344V63H10.112L3.52 56.408V50.776H10.816V54.168L13.248 56.6H17.344V43.288H10.24L3.648 36.76V24.792L10.24 18.2H17.344V11.16H23.68V18.2H29.952L36.544 24.792V30.488H29.248V27.032L26.752 24.6H23.68V36.888H30.464L37.056 43.48ZM17.344 36.888V24.6H13.44L10.944 27.032V34.456L13.44 36.888H17.344ZM29.76 45.784L27.264 43.288H23.68V56.6H27.2L29.76 54.04V45.784ZM42.746 53.592L65.914 31.96V27.032L63.418 24.6H52.41L49.914 27.032V31.192H42.49V24.792L49.082 18.2H66.746L73.338 24.792V34.136L50.362 55.32V56.664H73.594V63H42.746V53.592ZM79.7 55.896V25.304L86.804 18.2H106.132L113.236 25.304V55.896L106.132 63H86.804L79.7 55.896ZM102.676 56.6L105.812 53.528V27.672L102.676 24.6H90.26L87.124 27.672V53.528L90.26 56.6H102.676ZM120.568 55.896V25.304L127.672 18.2H147L154.104 25.304V55.896L147 63H127.672L120.568 55.896ZM143.544 56.6L146.68 53.528V27.672L143.544 24.6H131.128L127.992 27.672V53.528L131.128 56.6H143.544Z" fill="white"/>
<path d="M165.208 53.768H166.152L159.96 65H159L165.208 53.768ZM171.218 57.032H172.098V58.664L173.746 57.032H175.602L176.866 58.296L178.13 57.032H180.61L182.002 58.424V65H181.106V58.696L180.226 57.832H178.354L177.138 59.048V65H176.258V58.792L175.298 57.832H173.954L172.114 59.672V65H171.218V57.032ZM184.323 63.608V58.424L185.715 57.032H189.683L191.075 58.424V63.608L189.683 65H185.715L184.323 63.608ZM189.299 64.184L190.179 63.32V58.696L189.299 57.832H186.099L185.219 58.696V63.32L186.099 64.184H189.299ZM193.468 57.032H194.348V58.888L196.204 57.032H198.556L199.948 58.424V65H199.052V58.712L198.172 57.848H196.476L194.364 59.944V65H193.468V57.032ZM202.984 63.608V57.816H201.544V57.032H203.016V54.44H203.88V57.032H206.376V57.832H203.88V63.32L204.76 64.2H206.376V65H204.376L202.984 63.608ZM208.374 53.576H209.27V58.872L211.11 57.032H213.494L214.886 58.424V65H213.99V58.696L213.11 57.832H211.382L209.27 59.944V65H208.374V53.576Z" fill="#71717A"/>
</svg>
